<?xml version="1.0" encoding="UTF-8" standalone="no"?>
<svg
   xmlns:dc="http://purl.org/dc/elements/1.1/"
   xmlns:cc="http://creativecommons.org/ns#"
   xmlns:rdf="http://www.w3.org/1999/02/22-rdf-syntax-ns#"
   xmlns:svg="http://www.w3.org/2000/svg"
   xmlns="http://www.w3.org/2000/svg"
   xmlns:sodipodi="http://sodipodi.sourceforge.net/DTD/sodipodi-0.dtd"
   xmlns:inkscape="http://www.inkscape.org/namespaces/inkscape"
   height="24"
   viewBox="0 0 24 24"
   width="24"
   version="1.1"
   id="svg78"
   sodipodi:docname="save.svg"
   inkscape:export-filename="/home/alejandro/upds/programacion3/tareas/5/FlashCards/images/save.png"
   inkscape:export-xdpi="128"
   inkscape:export-ydpi="128"
   inkscape:version="1.0.2 (e86c870879, 2021-01-15)">
  <metadata
     id="metadata84">
    <rdf:RDF>
      <cc:Work
         rdf:about="">
        <dc:format>image/svg+xml</dc:format>
        <dc:type
           rdf:resource="http://purl.org/dc/dcmitype/StillImage" />
        <dc:title></dc:title>
      </cc:Work>
    </rdf:RDF>
  </metadata>
  <defs
     id="defs82" />
  <sodipodi:namedview
     pagecolor="#ffffff"
     bordercolor="#666666"
     borderopacity="1"
     objecttolerance="10"
     gridtolerance="10"
     guidetolerance="10"
     inkscape:pageopacity="0"
     inkscape:pageshadow="2"
     inkscape:window-width="640"
     inkscape:window-height="480"
     id="namedview80"
     showgrid="false"
     inkscape:zoom="32.375"
     inkscape:cx="2.6525096"
     inkscape:cy="9"
     inkscape:current-layer="svg78"
     inkscape:document-rotation="0" />
  <path
     d="m -3,-3 h 24 v 24 h -24 z"
     fill="none"
     id="path74" />
  <path
     d="m 18.666667,0 h -16.0000003 c -1.48,0 -2.6666667,1.2 -2.6666667,2.6666667 v 18.6666663 c 0,1.466667 1.1866667,2.666667 2.6666667,2.666667 h 18.6666663 c 1.466667,0 2.666667,-1.2 2.666667,-2.666667 v -15.9999997 z m -6.666667,21.333333 c -2.213333,0 -4,-1.786666 -4,-4 0,-2.213333 1.786667,-4 4,-4 2.213333,0 4,1.786667 4,4 0,2.213334 -1.786667,4 -4,4 z m 4,-13.333333 h -13.3333333 v -5.3333333 h 13.3333333 z"
     id="path76"
     style="stroke-width:1.33333" />
</svg>
