<?xml version="1.0" encoding="UTF-8" standalone="no"?>
<svg
   xmlns:dc="http://purl.org/dc/elements/1.1/"
   xmlns:cc="http://creativecommons.org/ns#"
   xmlns:rdf="http://www.w3.org/1999/02/22-rdf-syntax-ns#"
   xmlns:svg="http://www.w3.org/2000/svg"
   xmlns="http://www.w3.org/2000/svg"
   xmlns:sodipodi="http://sodipodi.sourceforge.net/DTD/sodipodi-0.dtd"
   xmlns:inkscape="http://www.inkscape.org/namespaces/inkscape"
   height="24"
   viewBox="0 0 24 24"
   width="24"
   version="1.1"
   id="svg78"
   sodipodi:docname="save-disabled.svg"
   inkscape:export-filename="/home/alejandro/upds/programacion3/tareas/5/FlashCards/images/save.png"
   inkscape:export-xdpi="128"
   inkscape:export-ydpi="128"
   inkscape:version="1.0.2 (e86c870879, 2021-01-15)">
  <metadata
     id="metadata84">
    <rdf:RDF>
      <cc:Work
         rdf:about="">
        <dc:format>image/svg+xml</dc:format>
        <dc:type
           rdf:resource="http://purl.org/dc/dcmitype/StillImage" />
        <dc:title></dc:title>
      </cc:Work>
    </rdf:RDF>
  </metadata>
  <defs
     id="defs82" />
  <sodipodi:namedview
     pagecolor="#ffffff"
     bordercolor="#666666"
     borderopacity="1"
     objecttolerance="10"
     gridtolerance="10"
     guidetolerance="10"
     inkscape:pageopacity="0"
     inkscape:pageshadow="2"
     inkscape:window-width="640"
     inkscape:window-height="480"
     id="namedview80"
     showgrid="false"
     inkscape:zoom="16.1875"
     inkscape:cx="9.6274946"
     inkscape:cy="3.9406225"
     inkscape:current-layer="svg78"
     inkscape:document-rotation="0" />
  <path
     d="m -2.5649126,-2.5649126 h 23.9999996 v 23.9999996 h -23.9999996 z"
     fill="none"
     id="path74" />
  <path
     d="m 18.440072,0.40787101 h -15.4561721 c -1.429696,0 -2.57602889,1.15921299 -2.57602889,2.57602899 v 18.032201 c 0,1.416816 1.14633289,2.576028 2.57602889,2.576028 h 18.0322011 c 1.416815,0 2.576028,-1.159212 2.576028,-2.576028 v -15.4561724 z m -6.440072,20.60822999 c -2.1381031,0 -3.8640427,-1.72594 -3.8640427,-3.864043 0,-2.138104 1.7259396,-3.864043 3.8640427,-3.864043 2.138103,0 3.864043,1.725939 3.864043,3.864043 0,2.138103 -1.72594,3.864043 -3.864043,3.864043 z m 3.864043,-12.8801436 h -12.8801431 v -5.1520574 h 12.8801431 z"
     id="path76"
     style="fill:none;stroke:#999999;stroke-width:0.815742;stroke-miterlimit:4;stroke-dasharray:none" />
</svg>
